<?xml version="1.0" encoding="utf-8"?>
<!-- Generator: Adobe Illustrator 24.1.1, SVG Export Plug-In . SVG Version: 6.00 Build 0)  -->
<svg version="1.1" id="Capa_1" xmlns="http://www.w3.org/2000/svg" xmlns:xlink="http://www.w3.org/1999/xlink" x="0px" y="0px"
	 viewBox="0 0 640 512" style="enable-background:new 0 0 640 512;" xml:space="preserve">
<style type="text/css">
	.st0{fill:#012D69;}
</style>
<path class="st0" d="M629.7,232.4L576.6,153c-9.6-14.4-25.8-23-43.1-23h-67.9V78.3c0-28.5-23.3-51.7-51.8-51.7H68.2
	c-28.6,0-51.8,23.2-51.8,51.7l0,0V354c0,28.5,23.2,51.7,51.8,51.7l0,0h19.1c9.5,46.6,55.2,76.7,101.9,67.2
	c33.9-6.9,60.4-33.3,67.4-67.2h107.2c9.5,46.6,55.2,76.7,101.9,67.2c33.9-6.9,60.4-33.3,67.4-67.2h53.5c28.6,0,51.8-23.2,51.8-51.7
	l0,0v-92.9C638.4,250.9,635.3,240.9,629.7,232.4z M465.6,164.5h67.9c5.7,0,11.2,2.9,14.3,7.7l41,61.3H465.6V164.5z M171.9,440.1
	c-28.6,0-51.8-23.2-51.8-51.7c0-28.5,23.3-51.7,51.8-51.7s51.8,23.2,51.8,51.7C223.7,417,200.5,440.1,171.9,440.1z M363.7,371.3
	H256.5c-9.5-46.6-55.2-76.7-101.9-67.2c-33.9,6.9-60.4,33.3-67.4,67.2h-19c-9.5,0-17.3-7.7-17.3-17.3l0,0V78.3
	c0-9.5,7.8-17.3,17.3-17.3l0,0h345.5c9.5,0,17.3,7.7,17.3,17.3l0,0v225.7C397.2,311,370.6,337.5,363.7,371.3z M448.4,440.1
	c-28.6,0-51.8-23.2-51.8-51.7c0-28.5,23.3-51.7,51.8-51.7c28.6,0,51.8,23.2,51.8,51.7C500.2,417,477,440.1,448.4,440.1z M603.9,354
	c0,9.5-7.8,17.3-17.3,17.3l0,0H533c-7-33.8-33.5-60.3-67.4-67.2v-36.2h138.2V354H603.9z"/>
</svg>
