<?xml version="1.0" encoding="utf-8"?>
<!-- Generator: Adobe Illustrator 24.1.1, SVG Export Plug-In . SVG Version: 6.00 Build 0)  -->
<svg version="1.1" id="Capa_1" xmlns="http://www.w3.org/2000/svg" xmlns:xlink="http://www.w3.org/1999/xlink" x="0px" y="0px"
	 viewBox="0 0 435 512" style="enable-background:new 0 0 435 512;" xml:space="preserve">
<style type="text/css">
	.st0{fill:#012D69;}
</style>
<path class="st0" d="M223.9,34L223.9,34l1.2,0.7l3.6,2.1c3.1,1.9,7.7,4.6,13.4,7.7c11.3,6.4,27.1,15,44.6,23.6s36.9,17,55.3,23.4
	c18.7,6.3,35.7,10.2,49,10.2c6.1,0,11.2,4.6,11.9,10.5c16.3,139.8-12.1,227.8-54.1,283c-41.9,55.1-96.2,75.9-128.1,84.2
	c-2,0.6-4,0.6-6.1,0c-32-8.3-86.2-29.2-128.1-84.2c-42.1-55.2-70.5-143.2-54.2-283c0.7-6.1,5.8-10.5,11.9-10.5
	c13.3,0,30.2-3.8,49-10.2c18.4-6.3,37.7-14.8,55.3-23.4s33.3-17.1,44.6-23.6c5.7-3.3,10.2-5.9,13.4-7.7L211,34h0.1
	C214.9,31.3,220,31.3,223.9,34L223.9,34z M217.5,58.2c-3.2,1.9-7.4,4.4-12.5,7.3c-11.6,6.6-27.8,15.5-46,24.3s-38.4,17.8-58.1,24.5
	c-15.6,5.3-31.4,9.5-45.9,11c-13.3,129.5,14,208,50.5,255.9c36.1,47.6,82.6,66.7,111.9,74.7c29.3-8,75.8-27.1,112-74.7
	c36.5-47.9,63.8-126.4,50.5-255.9c-14.5-1.5-30.3-5.6-45.9-11c-19.7-6.7-40-15.6-58.1-24.5s-34.4-17.7-46-24.3
	C224.9,62.5,220.7,60,217.5,58.2z M266.6,175.4c9.2-9.5,24.3-9.8,33.9-0.7l0,0l18.9,18.1c9.5,9.1,9.8,24.2,0.7,33.7l0,0L219.2,331.1
	c-14.2,14.7-37.6,15.2-52.4,1c-0.5-0.5-0.9-0.9-1.4-1.5l-43.5-46.4c-9-9.6-8.5-24.7,1.2-33.7l0,0l19.2-17.8
	c9.7-8.9,24.8-8.4,33.9,1.2l16.8,17.9L266.6,175.4z M192.5,286.5l-34-36.3L139.3,268l43.4,46.4c5,5.3,13.2,5.6,18.5,0.7
	c0.2-0.2,0.4-0.4,0.6-0.6l101-104.5L284,191.9L192.5,286.5z"/>
</svg>
