<?xml version="1.0" encoding="utf-8"?>
<!-- Generator: Adobe Illustrator 24.1.1, SVG Export Plug-In . SVG Version: 6.00 Build 0)  -->
<svg version="1.1" id="Capa_1" xmlns="http://www.w3.org/2000/svg" xmlns:xlink="http://www.w3.org/1999/xlink" x="0px" y="0px"
	 viewBox="0 0 194.12 208" style="enable-background:new 0 0 194.12 208;" xml:space="preserve">
<style type="text/css">
	.st0{fill:#FAFAFA;}
	.st1{fill:#F1F9FB;}
	.st2{fill:#213461;}
</style>
<g>
	<path class="st0" d="M28.33,58.83c2.73,2.6,5.28,5.24,8.02,7.61c9.25,7.99,19.82,13.38,31.16,17.17c7.44,2.49,15.02,4.3,22.75,5.43
		c1.8,0.26,3.6,0.57,5.4,0.79c0.89,0.11,1.53,0.55,2.05,1.27c1.84,2.57,1.64,7.38-0.41,9.76c-1.09,1.27-2.45,1.88-4.05,1.7
		c-11.27-1.27-22.31-3.63-33.04-7.56C46.3,89.9,33.61,82.49,22.51,72.25c-4.02-3.71-7.63-7.91-11.46-11.86
		c-0.55-0.57-0.44-0.94,0-1.48c12.77-15.55,28.2-27.16,46.36-34.68c6.36-2.63,12.89-4.69,19.61-5.95c4.63-0.87,9.33-1.49,14.02-1.84
		c4.55-0.34,9.15-0.45,13.69-0.16c4.88,0.31,9.76,1.03,14.59,1.9c9.44,1.69,18.43,4.93,27.06,9.27
		c11.47,5.77,21.61,13.51,30.77,22.79c2.98,3.02,2.01,6.9-0.31,9c-1.02,0.92-2.19,1.52-3.54,1.75c-1.19,0.2-2.17-0.02-3.13-0.89
		c-11.92-10.81-25.27-19.03-40.15-24.43c-6.85-2.49-13.88-4.26-21.07-5.23c-8.1-1.1-16.2-1.14-24.32-0.1
		c-14,1.79-26.9,6.78-38.89,14.51c-5.82,3.75-11.21,8.11-16.31,12.87C29.13,58.01,28.84,58.31,28.33,58.83z"/>
	<path class="st1" d="M100.12,88.06c-8.39-0.08-14.9-2.85-20.25-8.41c-4.06-4.22-6.61-9.37-7.48-15.31
		c-0.97-6.62,0.08-12.9,3.36-18.69c3.36-5.93,8.17-10.05,14.31-12.33c2.13-0.79,4.44-1.11,6.69-1.5c3.94-0.67,7.81-0.01,11.49,1.4
		c8.87,3.39,14.82,9.85,17.32,19.51c2,7.71,0.9,15.06-3.14,21.85c-4.15,6.97-10.12,11.24-17.75,12.88
		C102.9,87.85,101.07,87.94,100.12,88.06z M74.47,59.73c-0.9,8.63,4.72,18.38,15.17,20.3c9.91,1.82,18.72-4.71,21.06-14.08
		c2.61-10.46-3.61-20.73-13.3-23.41c-6.18-1.71-16.72,1.56-18.15,5.9c6.94-6.41,15.73-4.89,20.73-0.37
		c4.88,4.43,6.51,11.98,3.81,18.32c-2.68,6.3-9.42,10.36-16.36,9.17C81.87,74.61,74.94,69.8,74.47,59.73z"/>
	<path class="st2" d="M74.47,59.73c0.47,10.08,7.4,14.88,12.96,15.83c6.94,1.18,13.68-2.87,16.36-9.17
		c2.7-6.34,1.07-13.89-3.81-18.32c-4.99-4.53-13.79-6.04-20.73,0.37c1.43-4.35,11.97-7.61,18.15-5.9
		c9.69,2.68,15.91,12.95,13.3,23.41c-2.34,9.36-11.15,15.89-21.06,14.08C79.19,78.11,73.57,68.36,74.47,59.73z"/>
</g>
<g>
	<g>
		<path class="st1" d="M28.41,149.32c-2.85,0-5.27-0.48-7.27-1.44c-2-0.96-3.61-2.24-4.84-3.85c-1.23-1.6-2.13-3.38-2.7-5.33
			s-0.85-3.9-0.85-5.85c0-1.89,0.32-3.8,0.97-5.74c0.64-1.93,1.62-3.71,2.92-5.33c1.3-1.62,2.95-2.93,4.93-3.92
			c1.98-0.99,4.3-1.49,6.98-1.49c2.73,0,5.08,0.5,7.06,1.49c1.98,0.99,3.6,2.3,4.86,3.94s2.2,3.41,2.81,5.33
			c0.61,1.92,0.92,3.83,0.92,5.71c0,1.86-0.32,3.75-0.97,5.67c-0.65,1.92-1.62,3.7-2.92,5.33c-1.31,1.64-2.95,2.96-4.93,3.96
			C33.4,148.82,31.08,149.32,28.41,149.32z M28.9,146.04c1.56,0,2.86-0.38,3.91-1.15c1.05-0.77,1.89-1.76,2.52-2.99
			c0.63-1.23,1.08-2.57,1.35-4.03c0.27-1.46,0.41-2.87,0.41-4.25c0-2.07-0.18-3.96-0.54-5.67c-0.36-1.71-0.92-3.19-1.67-4.43
			s-1.7-2.21-2.86-2.88c-1.16-0.68-2.51-1-4.07-0.97c-1.53,0.03-2.82,0.44-3.87,1.24c-1.05,0.79-1.89,1.82-2.52,3.06
			c-0.63,1.25-1.08,2.6-1.35,4.07c-0.27,1.47-0.41,2.9-0.41,4.27c0,1.41,0.16,2.91,0.47,4.5c0.32,1.59,0.82,3.09,1.51,4.5
			c0.69,1.41,1.62,2.55,2.79,3.42C25.75,145.61,27.19,146.04,28.9,146.04z"/>
		<path class="st1" d="M48.03,145.63c0.69-0.03,1.27-0.12,1.73-0.27c0.46-0.15,0.83-0.49,1.08-1.03s0.38-1.41,0.38-2.61v-17.24
			c0-0.81,0.02-1.59,0.07-2.34c0.04-0.75,0.08-1.32,0.11-1.71c-0.48,0.03-1.08,0.05-1.8,0.07c-0.72,0.02-1.25,0.04-1.58,0.07v-3.46
			c2.13-0.03,4.26-0.04,6.39-0.04s4.26-0.01,6.39-0.04c2.64-0.03,4.94,0.32,6.91,1.04s3.48,1.83,4.54,3.33
			c1.06,1.5,1.57,3.45,1.51,5.85c-0.03,1.2-0.32,2.38-0.86,3.53c-0.54,1.15-1.33,2.2-2.38,3.15c-1.05,0.95-2.37,1.72-3.96,2.32
			c-1.59,0.6-3.45,0.93-5.58,0.99c-0.66,0.03-1.24,0.04-1.73,0.04s-1-0.01-1.51-0.04v3.96c0,0.84-0.02,1.64-0.04,2.38
			c-0.03,0.75-0.08,1.32-0.13,1.71c0.33-0.03,0.75-0.05,1.26-0.07c0.51-0.01,1.01-0.03,1.51-0.04c0.5-0.01,0.85-0.02,1.06-0.02v3.46
			H48.03V145.63z M57.75,133.84c0.33,0.03,0.66,0.06,0.99,0.09c0.33,0.03,0.67,0.04,1.04,0.04c1.65,0,2.99-0.28,4.03-0.83
			c1.04-0.55,1.79-1.37,2.27-2.43c0.48-1.06,0.72-2.36,0.72-3.89c0-1.5-0.2-2.7-0.61-3.6c-0.4-0.9-0.92-1.57-1.55-2
			c-0.63-0.43-1.29-0.72-1.98-0.86c-0.69-0.13-1.32-0.2-1.89-0.2c-0.63,0-1.17,0.08-1.62,0.22c-0.45,0.15-0.8,0.48-1.04,0.99
			c-0.24,0.51-0.36,1.29-0.36,2.34V133.84z"/>
		<path class="st1" d="M100.05,127.27c0-1.62-0.22-2.96-0.67-4.03c-0.45-1.06-1.09-1.86-1.91-2.38c-0.83-0.52-1.81-0.77-2.95-0.74
			h-2.16v21.1c0,0.81-0.02,1.59-0.04,2.34c-0.03,0.75-0.08,1.32-0.14,1.71c0.51-0.06,1.16-0.1,1.96-0.11
			c0.79-0.01,1.34-0.02,1.64-0.02v3.46H82.63v-2.97c0.69-0.03,1.27-0.12,1.73-0.27c0.46-0.15,0.83-0.49,1.08-1.03
			s0.38-1.41,0.38-2.61v-21.55h-2.07c-1.71,0.03-3.06,0.62-4.05,1.75c-0.99,1.14-1.48,2.92-1.48,5.35h-2.97l0.23-10.17h27.27
			l0.27,10.17H100.05z"/>
		<path class="st1" d="M118.95,120.07c-0.66,0.03-1.23,0.12-1.71,0.27c-0.48,0.15-0.85,0.49-1.1,1.01c-0.25,0.53-0.38,1.4-0.38,2.63
			v17.24c0,0.81-0.02,1.59-0.04,2.34c-0.03,0.75-0.08,1.32-0.13,1.71c0.48-0.06,1.09-0.1,1.82-0.11c0.74-0.01,1.25-0.02,1.55-0.02
			v3.46h-12.92v-2.97c0.69-0.03,1.27-0.12,1.73-0.27c0.46-0.15,0.83-0.49,1.08-1.03s0.38-1.41,0.38-2.61v-17.24
			c0-0.81,0.02-1.59,0.07-2.34c0.04-0.75,0.08-1.32,0.11-1.71c-0.48,0.03-1.08,0.05-1.8,0.07c-0.72,0.02-1.25,0.04-1.58,0.07v-3.46
			h12.92V120.07z"/>
		<path class="st1" d="M146.67,127.18c-0.39-2.49-1.22-4.37-2.5-5.63c-1.28-1.26-2.96-1.9-5.06-1.93c-1.56,0-2.92,0.36-4.09,1.08
			c-1.17,0.72-2.14,1.68-2.9,2.88c-0.76,1.2-1.33,2.56-1.71,4.09s-0.56,3.11-0.56,4.72c0,2.58,0.37,4.87,1.1,6.86
			s1.81,3.56,3.22,4.7c1.41,1.14,3.12,1.71,5.13,1.71c1.89,0,3.76-0.49,5.63-1.46c1.86-0.97,3.42-2.33,4.68-4.07l2.16,1.98
			c-1.47,2.01-3.01,3.53-4.63,4.57s-3.2,1.73-4.75,2.09c-1.55,0.36-2.93,0.54-4.16,0.54c-2.31,0-4.41-0.41-6.3-1.24
			c-1.89-0.82-3.52-1.96-4.88-3.42c-1.37-1.45-2.42-3.15-3.15-5.08c-0.74-1.93-1.1-4.03-1.1-6.28c0-2.04,0.33-4.06,0.99-6.08
			c0.66-2.01,1.64-3.83,2.95-5.47c1.3-1.63,2.95-2.94,4.93-3.92c1.98-0.97,4.27-1.46,6.88-1.46c1.17,0,2.45,0.19,3.85,0.56
			c1.39,0.38,2.71,0.92,3.94,1.64l-0.18-1.89h3.46v10.48H146.67z"/>
		<path class="st1" d="M152.34,148.6v-3.1c0.84,0,1.51-0.24,2.03-0.72c0.51-0.48,0.94-1.11,1.28-1.89c0.34-0.78,0.68-1.62,1.01-2.52
			l8.78-24.08h3.15l9.58,24.52c0.18,0.45,0.42,1.13,0.72,2.05c0.3,0.92,0.48,1.72,0.54,2.41c0.51-0.06,1-0.1,1.46-0.11
			c0.46-0.01,0.85-0.02,1.15-0.02v3.46h-12.1v-2.97c0.84,0,1.42-0.17,1.73-0.52c0.31-0.34,0.46-0.82,0.43-1.42
			c-0.03-0.6-0.2-1.28-0.49-2.03l-0.9-2.47l-9.76,0.18l-0.72,2.12c-0.15,0.39-0.37,0.97-0.65,1.73c-0.29,0.76-0.55,1.4-0.79,1.91
			c0.48-0.06,1.06-0.1,1.73-0.11c0.67-0.01,1.16-0.02,1.46-0.02v3.6H152.34z M162.06,136h7.51l-2.07-5.63
			c-0.39-1.08-0.74-2.17-1.04-3.26c-0.3-1.09-0.52-2.06-0.67-2.9h-0.04c-0.12,0.51-0.3,1.28-0.54,2.29
			c-0.24,1.02-0.62,2.24-1.13,3.64L162.06,136z"/>
	</g>
</g>
<g>
	<g>
		<path class="st1" d="M32.19,167.8c-0.33-2.1-1.03-3.69-2.11-4.75c-1.08-1.06-2.5-1.61-4.28-1.63c-1.32,0-2.47,0.3-3.46,0.91
			c-0.99,0.61-1.8,1.42-2.45,2.43c-0.65,1.01-1.13,2.17-1.44,3.46c-0.32,1.29-0.48,2.62-0.48,3.99c0,2.18,0.31,4.11,0.93,5.79
			c0.62,1.69,1.53,3.01,2.72,3.97c1.19,0.96,2.63,1.44,4.33,1.44c1.6,0,3.18-0.41,4.75-1.24c1.57-0.82,2.89-1.97,3.95-3.44
			l1.82,1.67c-1.24,1.7-2.55,2.98-3.91,3.86c-1.37,0.87-2.7,1.46-4.01,1.77s-2.48,0.46-3.51,0.46c-1.95,0-3.72-0.35-5.32-1.04
			s-2.97-1.66-4.12-2.89c-1.15-1.23-2.04-2.66-2.66-4.29c-0.62-1.63-0.93-3.4-0.93-5.3c0-1.72,0.28-3.43,0.84-5.13
			c0.56-1.7,1.39-3.24,2.49-4.62c1.1-1.38,2.49-2.48,4.16-3.31c1.67-0.82,3.61-1.24,5.81-1.24c0.99,0,2.07,0.16,3.25,0.48
			s2.29,0.78,3.33,1.39l-0.15-1.6h2.93v8.85H32.19z"/>
		<path class="st1" d="M54.87,176.73c0-1.06-0.17-1.84-0.49-2.32c-0.33-0.48-0.78-0.78-1.35-0.89c-0.57-0.11-1.2-0.16-1.88-0.13
			l-0.99,0.04v6.23c0,0.68-0.01,1.33-0.04,1.94c-0.03,0.61-0.06,1.08-0.11,1.41h5.09c0.76,0,1.49-0.17,2.2-0.51
			c0.71-0.34,1.29-0.91,1.75-1.71c0.46-0.8,0.68-1.88,0.68-3.25h2.47l-0.19,8.36H41.95v-2.51c0.58-0.02,1.07-0.1,1.46-0.23
			c0.39-0.13,0.7-0.42,0.91-0.87c0.21-0.46,0.32-1.19,0.32-2.2v-14.55c0-0.68,0.02-1.34,0.06-1.98c0.04-0.63,0.07-1.11,0.09-1.44
			c-0.41,0.03-0.91,0.04-1.52,0.06c-0.61,0.01-1.05,0.03-1.33,0.06v-2.93h19l0.23,7.37h-2.51c0-1.39-0.24-2.44-0.72-3.15
			c-0.48-0.71-1.08-1.18-1.79-1.42c-0.71-0.24-1.41-0.35-2.09-0.32l-1.37,0.04c-0.53,0-0.99,0.07-1.37,0.21
			c-0.38,0.14-0.67,0.44-0.87,0.91c-0.2,0.47-0.3,1.2-0.3,2.18v5.7h4.45l-0.15-3.31h2.93v9.23H54.87z"/>
		<path class="st1" d="M89.11,186.27l-12.16-15.54c-0.33-0.43-0.67-0.89-1.03-1.37s-0.71-0.98-1.06-1.48h-0.04l0.08,11.78
			c0,0.68-0.01,1.34-0.04,1.98c-0.03,0.63-0.06,1.12-0.11,1.44c0.41-0.05,0.92-0.08,1.54-0.1c0.62-0.01,1.06-0.02,1.31-0.02v2.93
			h-8.66v-2.51c0.58-0.02,1.07-0.1,1.46-0.23c0.39-0.13,0.7-0.42,0.91-0.87c0.21-0.46,0.32-1.19,0.32-2.2l-0.08-14.55
			c0-0.68,0.01-1.34,0.04-1.98c0.03-0.63,0.06-1.11,0.11-1.44c-0.41,0.03-0.92,0.04-1.54,0.06s-1.07,0.03-1.35,0.06v-2.93h5.97
			l11.63,14.67c0.63,0.81,1.16,1.51,1.58,2.09c0.42,0.58,0.78,1.09,1.08,1.52h0.04v-12.05c0-0.68,0.01-1.34,0.04-1.98
			c0.02-0.63,0.05-1.11,0.08-1.44c-0.41,0.03-0.91,0.04-1.52,0.06s-1.05,0.03-1.33,0.06v-2.93h8.66v2.51
			c-0.56,0.03-1.04,0.1-1.44,0.23s-0.72,0.41-0.93,0.85c-0.22,0.44-0.32,1.18-0.32,2.22v21.17H89.11z"/>
		<path class="st1" d="M121.14,167.88c0-1.37-0.19-2.5-0.57-3.4c-0.38-0.9-0.92-1.57-1.61-2.01c-0.7-0.44-1.53-0.65-2.49-0.63h-1.82
			v17.82c0,0.68-0.01,1.34-0.04,1.98c-0.03,0.63-0.06,1.12-0.11,1.44c0.43-0.05,0.98-0.08,1.65-0.1c0.67-0.01,1.13-0.02,1.39-0.02
			v2.93h-11.1v-2.51c0.58-0.02,1.07-0.1,1.46-0.23s0.7-0.42,0.91-0.87c0.21-0.46,0.32-1.19,0.32-2.2v-18.2h-1.75
			c-1.44,0.03-2.58,0.52-3.42,1.48c-0.84,0.96-1.25,2.47-1.25,4.52h-2.51l0.19-8.59h23.03l0.23,8.59H121.14z"/>
		<path class="st1" d="M142.35,176.73c0-1.06-0.17-1.84-0.49-2.32c-0.33-0.48-0.78-0.78-1.35-0.89c-0.57-0.11-1.2-0.16-1.88-0.13
			l-0.99,0.04v6.23c0,0.68-0.01,1.33-0.04,1.94c-0.03,0.61-0.06,1.08-0.11,1.41h5.09c0.76,0,1.49-0.17,2.2-0.51
			c0.71-0.34,1.29-0.91,1.75-1.71c0.46-0.8,0.68-1.88,0.68-3.25h2.47l-0.19,8.36h-20.06v-2.51c0.58-0.02,1.07-0.1,1.46-0.23
			c0.39-0.13,0.7-0.42,0.91-0.87c0.21-0.46,0.32-1.19,0.32-2.2v-14.55c0-0.68,0.02-1.34,0.06-1.98c0.04-0.63,0.07-1.11,0.09-1.44
			c-0.41,0.03-0.91,0.04-1.52,0.06c-0.61,0.01-1.05,0.03-1.33,0.06v-2.93h19l0.23,7.37h-2.51c0-1.39-0.24-2.44-0.72-3.15
			c-0.48-0.71-1.08-1.18-1.79-1.42c-0.71-0.24-1.41-0.35-2.09-0.32l-1.37,0.04c-0.53,0-0.99,0.07-1.37,0.21
			c-0.38,0.14-0.67,0.44-0.87,0.91c-0.2,0.47-0.3,1.2-0.3,2.18v5.7h4.45l-0.15-3.31h2.93v9.23H142.35z"/>
		<path class="st1" d="M156.37,185.89v-2.51c0.58-0.02,1.07-0.1,1.46-0.23c0.39-0.13,0.7-0.42,0.91-0.87
			c0.21-0.46,0.32-1.19,0.32-2.2v-14.55c0-0.68,0.02-1.34,0.06-1.98c0.04-0.63,0.07-1.11,0.09-1.44c-0.41,0.03-0.91,0.04-1.52,0.06
			c-0.61,0.01-1.05,0.03-1.33,0.06v-2.93c1.8-0.03,3.6-0.04,5.4-0.04s3.6-0.01,5.4-0.04c2.23-0.03,4.17,0.23,5.81,0.76
			s2.91,1.39,3.8,2.58c0.89,1.19,1.3,2.8,1.25,4.83c-0.03,1.06-0.28,2.08-0.78,3.04s-1.23,1.81-2.2,2.55
			c-0.98,0.74-2.21,1.32-3.71,1.75c0.48,0.2,0.96,0.53,1.42,0.99s0.87,0.94,1.2,1.44l1.79,2.66c0.56,0.86,1.05,1.55,1.48,2.05
			s0.86,0.88,1.29,1.12c0.43,0.24,0.92,0.38,1.48,0.4v2.51h-6.27c-0.46-0.33-0.91-0.8-1.35-1.42c-0.44-0.62-0.92-1.34-1.42-2.15
			l-2.81-4.56c-0.33-0.51-0.61-0.94-0.85-1.29c-0.24-0.35-0.49-0.66-0.74-0.91c-0.41,0-0.75,0-1.03,0c-0.28,0-0.59,0-0.95,0v4.07
			c0,0.71-0.01,1.38-0.04,2.01c-0.03,0.63-0.06,1.12-0.11,1.44c0.28-0.03,0.63-0.04,1.06-0.06c0.43-0.01,0.86-0.02,1.27-0.04
			c0.42-0.01,0.72-0.02,0.89-0.02v2.93H156.37z M166.4,172.82c1.42,0,2.56-0.21,3.42-0.63c0.86-0.42,1.49-1.05,1.88-1.9
			c0.39-0.85,0.59-1.92,0.59-3.21c0-1.22-0.19-2.17-0.57-2.87c-0.38-0.7-0.85-1.22-1.42-1.56c-0.57-0.34-1.15-0.56-1.73-0.65
			s-1.06-0.13-1.44-0.13c-0.53,0-0.99,0.06-1.37,0.19c-0.38,0.13-0.67,0.41-0.87,0.84c-0.2,0.43-0.3,1.09-0.3,1.98v7.79
			c0.28,0.03,0.57,0.06,0.87,0.09C165.76,172.8,166.07,172.82,166.4,172.82z"/>
	</g>
</g>
</svg>
