<svg id="Capa_1" data-name="Capa 1" xmlns="http://www.w3.org/2000/svg" viewBox="0 0 400 250"><defs><style>.cls-1{fill:#2754a2;}.cls-2{fill:#fff;}.cls-3{fill:#1d1d1b;}</style></defs><path d="M28.33,115.65c2.73,2.61,5.27,5.24,8,7.61,9.25,8,19.82,13.38,31.16,17.17a130.52,130.52,0,0,0,22.75,5.43c1.81.26,3.6.56,5.41.79a2.9,2.9,0,0,1,2,1.27c1.83,2.57,1.63,7.38-.41,9.76a4.5,4.5,0,0,1-4.06,1.7,141.55,141.55,0,0,1-33-7.56,111.47,111.47,0,0,1-37.71-22.75c-4-3.7-7.64-7.91-11.46-11.86-.55-.57-.44-.94,0-1.48A117.68,117.68,0,0,1,57.41,81.05,98.47,98.47,0,0,1,77,75.11a125.07,125.07,0,0,1,14-1.84,99.32,99.32,0,0,1,13.69-.16A128.56,128.56,0,0,1,119.32,75a98.71,98.71,0,0,1,27.05,9.27,117.27,117.27,0,0,1,30.77,22.79,6.06,6.06,0,0,1-.31,9,6.94,6.94,0,0,1-3.54,1.75,3.47,3.47,0,0,1-3.13-.9A120.67,120.67,0,0,0,130,92.49a101.18,101.18,0,0,0-21.07-5.23,91.71,91.71,0,0,0-63.2,14.41,116.44,116.44,0,0,0-16.31,12.88C29.13,114.83,28.84,115.14,28.33,115.65Z"/><path class="cls-1" d="M100.12,144.89c-8.4-.09-14.9-2.86-20.26-8.41a27.47,27.47,0,0,1-7.48-15.32,28.6,28.6,0,0,1,3.37-18.69A26.81,26.81,0,0,1,90.06,90.15a37.69,37.69,0,0,1,6.69-1.5,21.7,21.7,0,0,1,11.49,1.4c8.88,3.4,14.83,9.85,17.33,19.51a27.77,27.77,0,0,1-3.14,21.85,26.41,26.41,0,0,1-17.75,12.88C102.9,144.67,101.07,144.77,100.12,144.89ZM74.47,116.55a18.77,18.77,0,0,0,15.17,20.3c9.9,1.81,18.72-4.72,21.06-14.08A19.34,19.34,0,0,0,97.4,99.36c-6.18-1.72-16.72,1.55-18.15,5.9a15.13,15.13,0,0,1,20.73-.37,16.42,16.42,0,0,1,3.81,18.32,15.24,15.24,0,0,1-16.36,9.17C81.87,131.43,74.94,126.63,74.47,116.55Z"/><path class="cls-2" d="M74.47,116.55c.47,10.08,7.4,14.88,13,15.83a15.24,15.24,0,0,0,16.36-9.17A16.42,16.42,0,0,0,100,104.89a15.13,15.13,0,0,0-20.73.37c1.43-4.35,12-7.62,18.15-5.9a19.34,19.34,0,0,1,13.3,23.41c-2.34,9.36-11.16,15.89-21.06,14.08A18.77,18.77,0,0,1,74.47,116.55Z"/><path class="cls-3" d="M216.42,114a18.48,18.48,0,0,1-8.08-1.6,14.48,14.48,0,0,1-5.37-4.27,17.85,17.85,0,0,1-3-5.93,22.78,22.78,0,0,1-.95-6.5,19.94,19.94,0,0,1,1.07-6.37,19,19,0,0,1,3.25-5.93,16.27,16.27,0,0,1,5.48-4.35,17.12,17.12,0,0,1,7.75-1.65,17.38,17.38,0,0,1,7.85,1.65,15.35,15.35,0,0,1,5.4,4.38,19.13,19.13,0,0,1,3.12,5.92,20.87,20.87,0,0,1,1,6.35,19.59,19.59,0,0,1-1.08,6.3,19.35,19.35,0,0,1-3.25,5.93,16.49,16.49,0,0,1-5.47,4.4A17,17,0,0,1,216.42,114Zm.55-3.65a7.2,7.2,0,0,0,4.35-1.27,9.31,9.31,0,0,0,2.8-3.33,16.12,16.12,0,0,0,1.5-4.47,25.9,25.9,0,0,0,.45-4.73,30.64,30.64,0,0,0-.6-6.3,15.8,15.8,0,0,0-1.85-4.92,9,9,0,0,0-3.18-3.2,8.49,8.49,0,0,0-4.52-1.08,7.15,7.15,0,0,0-4.3,1.38,9.54,9.54,0,0,0-2.8,3.4,16.57,16.57,0,0,0-1.5,4.52,26.36,26.36,0,0,0-.45,4.75,25.68,25.68,0,0,0,.52,5,20,20,0,0,0,1.68,5,10.12,10.12,0,0,0,3.1,3.8A7.8,7.8,0,0,0,217,110.35Z"/><path class="cls-3" d="M237.62,109.9a7.1,7.1,0,0,0,1.92-.3,2,2,0,0,0,1.2-1.15,7.1,7.1,0,0,0,.43-2.9V86.4c0-.9,0-1.76.07-2.6s.09-1.46.13-1.9c-.54,0-1.2.06-2,.08s-1.39,0-1.75.07V78.2q3.54,0,7.1,0c2.36,0,4.73,0,7.1-.05a21.61,21.61,0,0,1,7.67,1.15,10.4,10.4,0,0,1,5.05,3.7,10.59,10.59,0,0,1,1.68,6.5,9.9,9.9,0,0,1-1,3.93,11.08,11.08,0,0,1-2.65,3.5,13.73,13.73,0,0,1-4.4,2.57,18.85,18.85,0,0,1-6.2,1.1c-.74,0-1.38,0-1.93,0s-1.11,0-1.67,0V105c0,.94,0,1.82,0,2.65s-.09,1.47-.15,1.9c.36,0,.83-.06,1.4-.07l1.67-.05,1.18,0v3.85H237.62Zm10.8-13.1,1.1.1a10.59,10.59,0,0,0,1.15,0,9.39,9.39,0,0,0,4.47-.92,5.67,5.67,0,0,0,2.53-2.7,10.56,10.56,0,0,0,.8-4.33,9.9,9.9,0,0,0-.68-4,5.17,5.17,0,0,0-1.72-2.22,5.76,5.76,0,0,0-2.2-1,11.1,11.1,0,0,0-2.1-.23,5.92,5.92,0,0,0-1.8.25,2,2,0,0,0-1.15,1.1,6.38,6.38,0,0,0-.4,2.6Z"/><path class="cls-3" d="M295.42,89.5a11.52,11.52,0,0,0-.75-4.47,5.55,5.55,0,0,0-2.13-2.65,5.66,5.66,0,0,0-3.27-.83h-2.4V105c0,.9,0,1.77-.05,2.6s-.09,1.47-.15,1.9c.56-.06,1.29-.1,2.17-.12l1.83,0v3.85h-14.6v-3.3a7.16,7.16,0,0,0,1.92-.3,2,2,0,0,0,1.2-1.15,7.28,7.28,0,0,0,.43-2.9v-24h-2.3a5.84,5.84,0,0,0-4.5,2q-1.65,1.9-1.65,6h-3.3l.25-11.3h30.3l.3,11.3Z"/><path class="cls-3" d="M316.42,81.5a8.14,8.14,0,0,0-1.9.3,2,2,0,0,0-1.23,1.13,7.29,7.29,0,0,0-.42,2.92V105c0,.9,0,1.77-.05,2.6s-.09,1.47-.15,1.9c.53-.06,1.2-.1,2-.12l1.73,0v3.85H302.07v-3.3a7.16,7.16,0,0,0,1.92-.3,2,2,0,0,0,1.2-1.15,7.28,7.28,0,0,0,.43-2.9V86.4c0-.9,0-1.76.07-2.6s.09-1.46.13-1.9c-.54,0-1.2.06-2,.08s-1.39,0-1.75.07V78.2h14.35Z"/><path class="cls-3" d="M346.62,89.4a11,11,0,0,0-2.78-6.25A7.85,7.85,0,0,0,338.22,81a8.49,8.49,0,0,0-4.55,1.2,10.07,10.07,0,0,0-3.23,3.2,15.22,15.22,0,0,0-1.9,4.55,23.65,23.65,0,0,0,.6,12.88,11.75,11.75,0,0,0,3.58,5.22,8.73,8.73,0,0,0,5.7,1.9,13.38,13.38,0,0,0,6.25-1.62,15,15,0,0,0,5.2-4.53l2.4,2.2a19.71,19.71,0,0,1-5.15,5.08,17,17,0,0,1-5.28,2.32,20.63,20.63,0,0,1-4.62.6,17.42,17.42,0,0,1-7-1.37,16.47,16.47,0,0,1-5.43-3.8,17,17,0,0,1-3.5-5.65,19.44,19.44,0,0,1-1.22-7,21.39,21.39,0,0,1,1.1-6.75,19.18,19.18,0,0,1,3.27-6.07A15.79,15.79,0,0,1,329.92,79a17,17,0,0,1,7.65-1.63,16.41,16.41,0,0,1,4.27.63,17.55,17.55,0,0,1,4.38,1.82l-.2-2.1h3.85V89.4Z"/><path class="cls-3" d="M352.57,113.2v-3.45a3.13,3.13,0,0,0,2.25-.8,6.35,6.35,0,0,0,1.42-2.1c.38-.86.76-1.8,1.13-2.8l9.75-26.75h3.5l10.65,27.25c.2.5.46,1.26.8,2.28a12.51,12.51,0,0,1,.6,2.67q.84-.09,1.62-.12l1.28,0v3.85H372.12v-3.3a2.56,2.56,0,0,0,1.92-.57,2.12,2.12,0,0,0,.48-1.58,7.48,7.48,0,0,0-.55-2.25l-1-2.75-10.85.2-.8,2.35-.73,1.93c-.32.85-.61,1.56-.87,2.12.53-.06,1.17-.11,1.92-.12l1.63,0v4Zm10.8-14h8.35L369.42,93c-.44-1.2-.82-2.41-1.15-3.62a32.58,32.58,0,0,1-.75-3.23h0q-.21.86-.6,2.55a38.82,38.82,0,0,1-1.25,4Z"/><path class="cls-1" d="M222.05,129.74a9.16,9.16,0,0,0-2.33-5.25,6.58,6.58,0,0,0-4.73-1.81,7.17,7.17,0,0,0-3.82,1,8.49,8.49,0,0,0-2.71,2.69,12.72,12.72,0,0,0-1.59,3.82,19.67,19.67,0,0,0,.5,10.82,10,10,0,0,0,3,4.39,7.42,7.42,0,0,0,4.79,1.59,11.19,11.19,0,0,0,5.25-1.36,12.47,12.47,0,0,0,4.37-3.81l2,1.85a16.56,16.56,0,0,1-4.32,4.27,14.55,14.55,0,0,1-4.43,2,17.07,17.07,0,0,1-3.89.5,14.58,14.58,0,0,1-5.88-1.15,13.61,13.61,0,0,1-4.55-3.19,14.06,14.06,0,0,1-2.94-4.75,16.3,16.3,0,0,1-1-5.86,18.28,18.28,0,0,1,.92-5.67,16.36,16.36,0,0,1,2.75-5.1A13.29,13.29,0,0,1,208,121a14.38,14.38,0,0,1,6.43-1.36,13.89,13.89,0,0,1,3.59.52,14.64,14.64,0,0,1,3.67,1.54l-.17-1.77h3.24v9.79Z"/><path class="cls-1" d="M247.12,139.61a4.67,4.67,0,0,0-.54-2.56,2.33,2.33,0,0,0-1.49-1,9.18,9.18,0,0,0-2.08-.15l-1.09.05v6.88c0,.76,0,1.47,0,2.15s-.07,1.19-.12,1.55h5.63a5.52,5.52,0,0,0,2.43-.57,4.49,4.49,0,0,0,1.93-1.89,7.17,7.17,0,0,0,.76-3.59h2.73l-.21,9.24H232.84V147a6.27,6.27,0,0,0,1.62-.25,1.71,1.71,0,0,0,1-1,6,6,0,0,0,.36-2.43V127.22c0-.76,0-1.48.06-2.18s.07-1.24.1-1.6c-.45,0-1,0-1.68.06l-1.47.06v-3.23h21l.25,8.15h-2.77a6.28,6.28,0,0,0-.79-3.49,3.92,3.92,0,0,0-2-1.57,6.26,6.26,0,0,0-2.31-.36l-1.51,0a4.48,4.48,0,0,0-1.51.23,1.73,1.73,0,0,0-1,1,6.62,6.62,0,0,0-.33,2.42v6.3h4.91l-.17-3.66h3.24v10.21Z"/><path class="cls-1" d="M285,150.15,271.52,133c-.36-.47-.74-1-1.13-1.51s-.78-1.08-1.18-1.64h0l.09,13c0,.76,0,1.49-.05,2.19a14.9,14.9,0,0,1-.12,1.59c.45-.05,1-.09,1.7-.1s1.17,0,1.45,0v3.23h-9.58V147a6.34,6.34,0,0,0,1.62-.25,1.71,1.71,0,0,0,1-1,6,6,0,0,0,.35-2.43l-.08-16.09c0-.76,0-1.48,0-2.18a14.6,14.6,0,0,1,.13-1.6c-.45,0-1,0-1.7.06l-1.49.06v-3.23h6.59L282,136.54c.7.9,1.28,1.67,1.75,2.31l1.19,1.68h0V127.22c0-.76,0-1.48.05-2.18s.05-1.24.08-1.6q-.68,0-1.68.06l-1.47.06v-3.23h9.58v2.77a7,7,0,0,0-1.6.25,1.74,1.74,0,0,0-1,1,6,6,0,0,0-.36,2.46v23.39Z"/><path class="cls-1" d="M320.37,129.82a9.74,9.74,0,0,0-.63-3.76,4.71,4.71,0,0,0-1.78-2.22,4.76,4.76,0,0,0-2.75-.69h-2v19.69c0,.76,0,1.49,0,2.19a14.37,14.37,0,0,1-.13,1.59c.48-.05,1.09-.09,1.83-.1s1.25,0,1.53,0v3.23H304.12V147a6.26,6.26,0,0,0,1.61-.25,1.68,1.68,0,0,0,1-1,6,6,0,0,0,.36-2.43V123.19h-1.93a4.84,4.84,0,0,0-3.78,1.64c-.93,1.06-1.39,2.73-1.39,5h-2.77l.21-9.49h25.45l.25,9.49Z"/><path class="cls-1" d="M343.81,139.61a4.65,4.65,0,0,0-.55-2.56,2.3,2.3,0,0,0-1.49-1,9.13,9.13,0,0,0-2.08-.15l-1.09.05v6.88c0,.76,0,1.47,0,2.15a14.15,14.15,0,0,1-.13,1.55h5.63a5.56,5.56,0,0,0,2.44-.57,4.55,4.55,0,0,0,1.93-1.89,7.29,7.29,0,0,0,.75-3.59h2.73l-.21,9.24H329.53V147a6.26,6.26,0,0,0,1.61-.25,1.68,1.68,0,0,0,1-1,6,6,0,0,0,.36-2.43V127.22c0-.76,0-1.48.06-2.18s.08-1.24.11-1.6q-.68,0-1.68.06l-1.47.06v-3.23h21l.25,8.15H348a6.28,6.28,0,0,0-.8-3.49,3.84,3.84,0,0,0-2-1.57,6.26,6.26,0,0,0-2.31-.36l-1.51,0a4.52,4.52,0,0,0-1.51.23,1.76,1.76,0,0,0-1,1,6.62,6.62,0,0,0-.33,2.42v6.3h4.91l-.17-3.66h3.24v10.21Z"/><path class="cls-1" d="M359.3,149.73V147a6.27,6.27,0,0,0,1.62-.25,1.71,1.71,0,0,0,1-1,6,6,0,0,0,.36-2.43V127.22c0-.76,0-1.48.06-2.18s.08-1.24.1-1.6q-.66,0-1.68.06l-1.47.06v-3.23q3,0,6,0c2,0,4,0,6,0a20.1,20.1,0,0,1,6.43.84,8.17,8.17,0,0,1,4.2,2.85,8.37,8.37,0,0,1,1.38,5.34,7.55,7.55,0,0,1-.86,3.36,8.25,8.25,0,0,1-2.43,2.81,12.49,12.49,0,0,1-4.1,1.93,5.27,5.27,0,0,1,1.58,1.1,8.84,8.84,0,0,1,1.32,1.59l2,2.94a24.21,24.21,0,0,0,1.64,2.27,5.46,5.46,0,0,0,1.43,1.24,3.76,3.76,0,0,0,1.64.44v2.77H378.5a6.66,6.66,0,0,1-1.49-1.57c-.49-.69-1-1.48-1.58-2.38l-3.11-5c-.36-.56-.68-1-.94-1.42a6.76,6.76,0,0,0-.82-1h-2.18v4.49c0,.78,0,1.53-.05,2.23a14.9,14.9,0,0,1-.12,1.59c.31,0,.7-.05,1.17-.06l1.41,0c.46,0,.79,0,1,0v3.23Zm11.09-14.45a8.74,8.74,0,0,0,3.78-.69,4.25,4.25,0,0,0,2.08-2.1,8.53,8.53,0,0,0,.65-3.55,6.68,6.68,0,0,0-.63-3.17,4.39,4.39,0,0,0-1.57-1.72,5.27,5.27,0,0,0-1.91-.72,12.21,12.21,0,0,0-1.6-.14,4.78,4.78,0,0,0-1.51.21,1.68,1.68,0,0,0-1,.92,5.5,5.5,0,0,0-.33,2.18v8.62c.3,0,.63.06,1,.1A9,9,0,0,0,370.39,135.28Z"/></svg>